<?xml version="1.0" encoding="utf-8"?>
<svg version="1.1" id="Layer_1" xmlns="http://www.w3.org/2000/svg" xmlns:xlink="http://www.w3.org/1999/xlink" x="0px"
     y="0px"
     viewBox="0 0 100 100" style="enable-background:new 0 0 100 100;" xml:space="preserve">
<style type="text/css">
	.st0{clip-path:url(#SVGID_2_);}
	.st1{fill:#B3B3B3;}
	.st2{fill:#F0BA7D;}
	.st3{fill:#FED298;}
	.st4{fill:#15BDB2;}
	.st5{fill:#21D0C3;}
	.st6{fill:#FFFFFF;}
	.st7{fill:#EEF3F7;}
	.st8{fill:#666666;}
	.st9{fill:#0F7986;}
	.st10{fill:#FEFEFE;}
	.st11{fill:#EBECEC;}
	.st12{fill:#4D4D4D;}
	.st13{fill:#076673;}
</style>
  <g>
	<defs>
		<rect id="SVGID_1_" x="2.7" y="-6.5" width="94.5" height="102.5"/>
	</defs>
    <clipPath id="SVGID_2_">
		<use xlink:href="#SVGID_1_" style="overflow:visible;"/>
	</clipPath>
    <g class="st0">
		<path class="st1" d="M41.4,49.3c5.8,0,11.6,0,17.4,0l0.1,1.2l-8.5,12.9l-9.1-13L41.4,49.3L41.4,49.3L41.4,49.3z"/>
      <path class="st2"
            d="M41.5,46.1l-0.2,7.3L29,60.1v24.7h20.7h20.7V60.1L59.1,53l-0.6-7.3L41.5,46.1L41.5,46.1L41.5,46.1z"/>
      <path class="st3" d="M35.8,24.9c0,0-0.7-1.6-2.6-0.8c-1.9,0.8,0.1,8.4,0.8,9.5c0.7,1.1,1.9,0.4,2.3,0.3c0.6,4.6,0.7,7.7,2.5,9.7
			c1.7,1.8,5.7,5.5,7.8,6.8c1.4,0.3,2.5,0.5,3.5,0.5c1-0.1,2.1-0.2,3.5-0.5c2.1-1.3,6.1-5,7.8-6.8c1.8-1.9,1.9-5.1,2.5-9.7
			c0.4,0,1.6,0.7,2.3-0.3c0.7-1.1,2.7-8.7,0.8-9.5c-1.9-0.8-2.6,0.8-2.6,0.8s1.9-6-1.5-11.9c-2.3-4.1-7.5-6.2-12.8-6.3
			C44.8,6.8,39.5,8.9,37.3,13C33.9,18.9,35.8,24.9,35.8,24.9L35.8,24.9L35.8,24.9z"/>
      <path class="st4" d="M35.3,55.5l2.9-1.2l2.4-2.1l8.4,6.4h2.1l8.4-6.4l5.3,3.3l9.3,15.7L66.8,111c-5.3,1.5-10.9,2.3-16.7,2.3
			c-4.7,0-9.3-0.5-13.7-1.5L23.2,72.5L35.3,55.5L35.3,55.5z"/>
      <g>
			<path class="st5" d="M62.1,53.5l-3.4-4.2l-7.6,9.2l6.6,7.3L62.1,53.5z"/>
        <path class="st5" d="M38,53.5l3.4-4.1l7.6,9.2l-6.8,7.2L38,53.5z"/>
		</g>
      <path class="st6" d="M38,53.5l-22.5,7.3c-0.9,0.3-1.5,1.1-1.7,2L7.3,96.2c4.4,4.2,9.5,7.8,15.1,10.5L25.6,96
			c0-0.1,0.2-0.2,0.3-0.2c0.1,0,0.2,0.1,0.2,0.2l0.5,12.6c7.3,3,15.2,4.6,23.5,4.6v-4.2L38,53.5L38,53.5z"/>
      <g>
			<path class="st7" d="M38,53.5l-2.6,0.8l-6.8,11.6l8.6,0.3l-5.3,3l18.1,40L38,53.5L38,53.5z"/>
        <path class="st7" d="M62.1,53.5l22.5,7.2c0.9,0.3,1.5,1.1,1.7,2l6.6,33.5c-4.4,4.2-9.5,7.8-15.1,10.5l-3.3-10.7
				c0-0.1-0.2-0.2-0.3-0.2c-0.1,0-0.2,0.1-0.2,0.2l-0.5,12.6c-7.3,3-15.2,4.6-23.5,4.6h0v-4.2L62.1,53.5L62.1,53.5z"/>
		</g>
      <path class="st6" d="M62.1,53.5l1.4,0.4l8,12l-8.6,0.3l5.3,3l-18.1,39.9L62.1,53.5L62.1,53.5L62.1,53.5L62.1,53.5z"/>
      <path class="st8" d="M62.7,26.7l1.3,0l0.4-1.5l1.2-1.2c0.8-6.2,1.1-15.8-5.1-15.5c0,0-0.6-7-11.6-5.6
			c-11.1,1.4-16.1,8.5-15.5,14.5c0.6,6,0.4,6.7,0.4,6.7l1.2,1.2l0.2,1.7l1.1-0.1c0,0,0.3-2.3,0.7-3.3c0.3-1,0.2-3.1,0.2-3.1
			s13.1,0.8,16.6-3.7c2.2-2.8,7.2-7.6,7.5-0.9c0.1,2-0.7,4.9,0.7,7.1C63.5,25.1,62.7,26.7,62.7,26.7L62.7,26.7L62.7,26.7z"/>
      <path class="st9" d="M50.1,109.1l3.5-16.3l-2.4-32.1l1.3-0.6l-1.4-1.6H49l-1.4,1.5l1.3,0.6l-2.3,32.4L50.1,109.1L50.1,109.1
			L50.1,109.1z"/>
      <path class="st10" d="M72.1,88.2c-2.4-0.4-4.1-2.7-3.6-5.2c0.4-2.4,2.7-4.1,5.2-3.6c2.4,0.4,4.1,2.7,3.6,5.2
			C76.8,87,74.5,88.6,72.1,88.2L72.1,88.2L72.1,88.2z"/>
      <path class="st9" d="M72.1,88c-2.3-0.4-3.8-2.6-3.4-4.9c0.4-2.3,2.6-3.8,4.9-3.4c2.3,0.4,3.8,2.6,3.4,4.9
			C76.6,86.8,74.4,88.4,72.1,88L72.1,88z"/>
      <path class="st11" d="M72.4,86.1c-1.3-0.2-2.1-1.4-1.9-2.7c0.2-1.3,1.4-2.1,2.7-1.9c1.3,0.2,2.1,1.4,1.9,2.7
			C74.9,85.5,73.7,86.3,72.4,86.1L72.4,86.1z"/>
      <path class="st10" d="M72.7,81.8l1,0.2l0.6-3.2l-1-0.2L72.7,81.8z"/>
      <path class="st5" d="M38.4,89.1l1.9-0.4c0.8-0.2,1.5-0.6,1.9-1.3c0.4-0.6,0.6-1.5,0.5-2.3l-2.3-11.4c-0.9-4.3-4.2-6.5-8-7
			c-1.5-0.2-3-0.1-4.5,0.2c-1.5,0.3-2.9,0.8-4.2,1.6c-3.3,1.9-5.6,5.2-4.8,9.5l2.3,11.4c0.2,0.8,0.6,1.5,1.3,1.9l0,0
			c0.6,0.4,1.4,0.6,2.3,0.5l1.9-0.4l-0.2-0.8L24.6,91c-0.6,0.1-1.2,0-1.7-0.3l0,0c-0.5-0.3-0.8-0.8-0.9-1.4l-2.3-11.4
			C19,74,21,71,24.1,69.3c1.2-0.7,2.6-1.2,4-1.5c1.4-0.3,2.9-0.3,4.2-0.2c3.5,0.4,6.6,2.4,7.3,6.3l2.3,11.4c0.1,0.6,0,1.2-0.3,1.7
			c-0.3,0.5-0.8,0.8-1.4,0.9l-1.9,0.4L38.4,89.1L38.4,89.1L38.4,89.1L38.4,89.1z"/>
      <path class="st12" d="M41.1,75.5l-0.3-1.7c-0.9-4.4-4.3-6.7-8.3-7.2c-1.5-0.2-3.1-0.1-4.6,0.2c-1.5,0.3-3,0.8-4.3,1.6
			c-3.4,2-5.8,5.4-4.9,9.8l0.3,1.7l1.3-0.3L20,77.9c-0.7-3.8,1.3-6.7,4.2-8.4c1.2-0.7,2.5-1.2,3.9-1.4c1.4-0.3,2.8-0.3,4.2-0.2
			c3.4,0.4,6.4,2.3,7.1,6.1l0.3,1.7L41.1,75.5L41.1,75.5z"/>
      <g>
			<path class="st13" d="M25.2,91.9l1-0.2c0.3,0.3,0.7,0.4,1.1,0.4c0.6-0.1,1-0.7,0.9-1.3c-0.1-0.6-0.7-1-1.3-0.9
				c-0.4,0.1-0.7,0.4-0.8,0.7l-1,0.2L25.2,91.9L25.2,91.9z"/>
        <path class="st13" d="M39.3,89.1l-1,0.2c-0.1,0.4-0.4,0.7-0.8,0.7c-0.6,0.1-1.2-0.3-1.3-0.9c-0.1-0.6,0.3-1.2,0.9-1.3
				c0.4-0.1,0.8,0.1,1.1,0.4l1-0.2L39.3,89.1z"/>
		</g>
      <path class="st8"
            d="M28.5,66.7l-0.4-2l-0.8,0.2L26.6,65l0.4,2c0.3-0.1,0.6-0.2,0.9-0.2C28.1,66.7,28.3,66.7,28.5,66.7z"/>
      <g>
			<path class="st9" d="M26.8,90.8c0.2,0,0.3-0.2,0.3-0.4c0-0.2-0.2-0.3-0.4-0.3c-0.2,0-0.3,0.2-0.3,0.4
				C26.5,90.7,26.7,90.9,26.8,90.8L26.8,90.8z"/>
        <path class="st9" d="M37,88.8c0.2,0,0.3-0.2,0.3-0.4c0-0.2-0.2-0.3-0.4-0.3c-0.2,0-0.3,0.2-0.3,0.4C36.6,88.7,36.8,88.8,37,88.8z
				"/>
		</g>
      <path class="st10" d="M72.3,86.1c-1.2-0.2-2-1.3-1.8-2.5c0.2-1.2,1.3-2,2.5-1.8c1.2,0.2,2,1.3,1.8,2.5
			C74.7,85.5,73.5,86.3,72.3,86.1L72.3,86.1z"/>
      <g>
			<path class="st12" d="M38,54c0,0-12.1,0.1-10.1,10.7L26.8,65C24.5,53,38,52.9,38,52.9L38,54z"/>
        <path class="st12" d="M62.2,53c2,0.1,5.8,0.6,8.7,4.2c2.9,3.5,4.9,9.9,3.4,21.7l-1.1-0.1c1.5-11.4-0.4-17.5-3.1-20.8
				c-2.6-3.2-6.1-3.7-7.9-3.7L62.2,53L62.2,53z"/>
		</g>
	</g>
    <circle class="st0" cx="43.5" cy="28.3" r="1.6"/>
    <circle class="st0" cx="57.3" cy="28.3" r="1.6"/>
    <g class="st0">
		<path d="M45.1,41.9c1.9,1,3.9,1.8,5.9,1.7c1,0,2-0.2,2.9-0.7c0.5-0.2,0.9-0.5,1.4-0.7c0.5-0.3,0.9-0.6,1.3-0.9
			c-0.3,0.4-0.6,0.9-1,1.3c-0.4,0.4-0.8,0.8-1.3,1c-0.9,0.6-2.1,0.9-3.3,1c-1.2,0-2.3-0.2-3.3-0.7C46.7,43.4,45.8,42.8,45.1,41.9z"
    />
	</g>
</g>
</svg>
